<?xml version="1.0" encoding="UTF-8" standalone="no"?>
<svg
   xmlns:dc="http://purl.org/dc/elements/1.1/"
   xmlns:cc="http://creativecommons.org/ns#"
   xmlns:rdf="http://www.w3.org/1999/02/22-rdf-syntax-ns#"
   xmlns:svg="http://www.w3.org/2000/svg"
   xmlns="http://www.w3.org/2000/svg"
   version="1.1"
   id="svg2"
   viewBox="0 0 514.87757 93.721117"
   height="26.450182mm"
   width="145.30989mm">
  <defs
     id="defs4">
    <clipPath
       id="clipPath4337"
       clipPathUnits="userSpaceOnUse">
      <path
         id="path4339"
         d="m 173.21428,810.21935 c -0.35714,27.85714 -3.92857,9.64286 -0.35714,27.85714 3.57143,18.21429 15.71429,27.14286 2.85714,34.28572 -12.85714,7.14285 -17.85714,2.85714 -26.78571,6.07142 -8.92857,3.21429 -22.5,1.07143 -10.35714,20 12.14285,18.92858 16.07143,20.71429 31.78571,22.5 15.71429,1.78572 13.57143,7.14286 19.64286,-2.14285 6.07143,-9.28572 6.42857,-9.28572 10,-17.5 3.57143,-8.21429 4.28571,-10 5.71428,-16.78572 1.42858,-6.78571 0.35715,-7.5 2.14286,-12.5 1.78572,-5 0.71429,-5.71428 1.78572,-8.92857 1.07142,-3.21428 1.42857,-5 2.14285,-8.57143 0.71429,-3.57143 0,0 1.42857,-6.07143 1.42858,-6.07142 1.42858,-10 1.42858,-10 0,0 0.35714,-1.07142 0.71428,-2.85714 0.35714,-1.78571 0.71429,-2.85714 1.78572,-8.21428 1.07142,-5.35715 1.42857,-2.85715 1.07142,-7.85715 -0.35714,-5 1.42858,-8.92857 -3.57142,-12.14285 -5,-3.21429 -6.07143,-5.35715 -17.5,-6.07143 -11.42858,-0.71429 -14.28572,-0.35715 -18.92858,0.35714 -4.64285,0.71429 -5,8.57143 -5,8.57143 z"
         style="fill:#000000;fill-rule:evenodd;stroke:#000000;stroke-width:1px;stroke-linecap:butt;stroke-linejoin:miter;stroke-opacity:1" />
    </clipPath>
    <clipPath
       id="clipPath4425"
       clipPathUnits="userSpaceOnUse">
      <rect
         y="-499.23209"
         x="-94.954338"
         height="844.48755"
         width="781.85809"
         id="rect4427"
         style="color:#000000;clip-rule:nonzero;display:inline;overflow:visible;visibility:visible;opacity:1;isolation:auto;mix-blend-mode:normal;color-interpolation:sRGB;color-interpolation-filters:linearRGB;solid-color:#000000;solid-opacity:1;fill:#3773a6;fill-opacity:1;fill-rule:nonzero;stroke:#ff0000;stroke-width:1;stroke-linecap:butt;stroke-linejoin:miter;stroke-miterlimit:4;stroke-dasharray:none;stroke-dashoffset:0;stroke-opacity:1;color-rendering:auto;image-rendering:auto;shape-rendering:auto;text-rendering:auto;enable-background:accumulate" />
    </clipPath>
    <clipPath
       id="clipPath4425-1"
       clipPathUnits="userSpaceOnUse">
      <rect
         y="-499.23209"
         x="-94.954338"
         height="844.48755"
         width="781.85809"
         id="rect4427-2"
         style="color:#000000;clip-rule:nonzero;display:inline;overflow:visible;visibility:visible;opacity:1;isolation:auto;mix-blend-mode:normal;color-interpolation:sRGB;color-interpolation-filters:linearRGB;solid-color:#000000;solid-opacity:1;fill:#3773a6;fill-opacity:1;fill-rule:nonzero;stroke:#ff0000;stroke-width:1;stroke-linecap:butt;stroke-linejoin:miter;stroke-miterlimit:4;stroke-dasharray:none;stroke-dashoffset:0;stroke-opacity:1;color-rendering:auto;image-rendering:auto;shape-rendering:auto;text-rendering:auto;enable-background:accumulate" />
    </clipPath>
  </defs>
  <metadata
     id="metadata7">
    <rdf:RDF>
      <cc:Work
         rdf:about="">
        <dc:format>image/svg+xml</dc:format>
        <dc:type
           rdf:resource="http://purl.org/dc/dcmitype/StillImage" />
        <dc:title></dc:title>
      </cc:Work>
    </rdf:RDF>
  </metadata>
  <g
     transform="translate(-109.66021,-657.58496)"
     id="g4509"
     style="display:inline">
    <g
       id="text4511"
       style="font-style:normal;font-variant:normal;font-weight:normal;font-stretch:normal;font-size:80px;line-height:125%;font-family:Quicksand;-inkscape-font-specification:Quicksand;letter-spacing:0px;word-spacing:0px;fill:#5789b7;fill-opacity:1;stroke:none;stroke-width:1px;stroke-linecap:butt;stroke-linejoin:miter;stroke-opacity:1">
      <path
         id="path4381"
         style="font-style:normal;font-variant:normal;font-weight:600;font-stretch:normal;font-family:Quicksand;-inkscape-font-specification:'Quicksand Semi-Bold';fill:#5789b7;fill-opacity:1"
         d="m 110.30821,720.85077 q -0.72,-1.12 -0.64,-2.56 0.08,-1.52 1.68,-2.56 1.12,-0.72 2.32,-0.56 1.28,0.08 2.4,1.2 2.24,2.48 4.96,3.92 2.8,1.44 6.72,1.44 1.6,-0.08 3.28,-0.48 1.68,-0.48 2.88,-1.6 1.2,-1.2 1.2,-3.44 0,-2 -1.28,-3.2 -1.28,-1.2 -3.36,-1.92 -2.08,-0.8 -4.48,-1.44 -2.56,-0.72 -5.2,-1.6 -2.56,-0.88 -4.64,-2.24 -2.08,-1.44 -3.44,-3.68 -1.28,-2.24 -1.28,-5.52 0,-3.76 2.08,-6.48 2.16,-2.72 5.52,-4.24 3.44,-1.52 7.44,-1.52 2.32,0 4.88,0.64 2.56,0.56 4.96,1.84 2.4,1.28 4.16,3.36 0.8,1.04 0.88,2.48 0.16,1.44 -1.28,2.56 -0.96,0.8 -2.32,0.72 -1.36,-0.08 -2.24,-0.88 -1.52,-1.92 -3.92,-2.96 -2.4,-1.12 -5.44,-1.12 -1.52,0 -3.2,0.48 -1.6,0.4 -2.72,1.52 -1.12,1.12 -1.12,3.28 0,2 1.28,3.2 1.36,1.2 3.52,2 2.16,0.8 4.72,1.44 2.48,0.64 4.88,1.52 2.48,0.88 4.4,2.32 2,1.36 3.2,3.6 1.28,2.16 1.28,5.52 0,3.92 -2.32,6.72 -2.24,2.72 -5.76,4.16 -3.44,1.44 -7.28,1.44 -4.56,0 -9.12,-1.6 -4.48,-1.68 -7.6,-5.76 z" />
      <path
         id="path4383"
         style="font-style:normal;font-variant:normal;font-weight:600;font-stretch:normal;font-family:Quicksand;-inkscape-font-specification:'Quicksand Semi-Bold';fill:#5789b7;fill-opacity:1"
         d="m 200.10946,684.93077 q 1.52,0 2.64,1.2 1.2,1.12 1.2,2.96 0,0.4 -0.08,0.8 -0.08,0.4 -0.24,0.72 l -12.24,34.24 q -0.48,1.36 -1.68,2.08 -1.2,0.64 -2.48,0.48 -2.32,-0.16 -3.44,-2.56 l -9.04,-24 1.84,0.16 -8.32,23.84 q -1.12,2.4 -3.44,2.56 -1.2,0.16 -2.48,-0.48 -1.2,-0.72 -1.68,-2.08 l -12.32,-34.24 q -0.32,-0.72 -0.32,-1.52 0,-1.68 1.04,-2.88 1.12,-1.28 2.96,-1.28 1.28,0 2.24,0.64 1.04,0.64 1.44,1.92 l 10.24,28.88 -1.84,-0.16 8.32,-21.84 q 1.04,-2.48 3.68,-2.48 1.44,0 2.24,0.64 0.8,0.64 1.28,1.84 l 8.48,21.92 -2.16,0.24 10.32,-29.04 q 0.8,-2.56 3.84,-2.56 z" />
      <path
         id="path4385"
         style="font-style:normal;font-variant:normal;font-weight:600;font-stretch:normal;font-family:Quicksand;-inkscape-font-specification:'Quicksand Semi-Bold';fill:#5789b7;fill-opacity:1"
         d="m 246.63571,684.69077 q 1.68,0 2.8,1.2 1.2,1.12 1.2,2.88 l 0,34.56 q 0,1.76 -1.2,2.96 -1.12,1.12 -2.8,1.12 -1.76,0 -2.88,-1.12 -1.12,-1.2 -1.12,-2.96 l 0,-5.76 1.6,0.24 q 0,1.44 -1.2,3.2 -1.12,1.76 -3.12,3.44 -2,1.6 -4.72,2.72 -2.72,1.04 -5.84,1.04 -5.52,0 -9.92,-2.8 -4.4,-2.88 -6.96,-7.84 -2.56,-4.96 -2.56,-11.28 0,-6.48 2.56,-11.36 2.56,-4.96 6.88,-7.76 4.4,-2.8 9.76,-2.8 3.44,0 6.32,1.12 2.96,1.12 5.12,2.88 2.16,1.76 3.36,3.76 1.2,1.92 1.2,3.68 l -2.48,0.24 0,-7.28 q 0,-1.68 1.12,-2.88 1.12,-1.2 2.88,-1.2 z m -16.32,36.16 q 3.76,0 6.56,-1.92 2.88,-1.92 4.48,-5.2 1.6,-3.36 1.6,-7.44 0,-4.16 -1.6,-7.44 -1.6,-3.28 -4.48,-5.2 -2.8,-1.92 -6.56,-1.92 -3.68,0 -6.56,1.92 -2.88,1.92 -4.48,5.2 -1.6,3.28 -1.6,7.44 0,4.08 1.6,7.44 1.6,3.28 4.4,5.2 2.88,1.92 6.64,1.92 z" />
      <path
         id="path4387"
         style="font-style:normal;font-variant:normal;font-weight:600;font-stretch:normal;font-family:Quicksand;-inkscape-font-specification:'Quicksand Semi-Bold';fill:#5789b7;fill-opacity:1"
         d="m 282.81446,684.61077 q 5.92,0 9.12,2.96 3.2,2.88 4.24,7.84 l -1.28,-0.4 0.56,-1.28 q 1.04,-2.08 3.12,-4.16 2.16,-2.16 5.12,-3.52 2.96,-1.44 6.32,-1.44 5.52,0 8.56,2.4 3.04,2.32 4.24,6.32 1.2,3.92 1.2,8.8 l 0,21.2 q 0,1.76 -1.12,2.96 -1.12,1.12 -2.88,1.12 -1.68,0 -2.88,-1.12 -1.12,-1.2 -1.12,-2.96 l 0,-21.12 q 0,-2.8 -0.8,-5.12 -0.72,-2.32 -2.64,-3.68 -1.84,-1.44 -5.12,-1.44 -3.12,0 -5.6,1.44 -2.4,1.36 -3.76,3.68 -1.36,2.32 -1.36,5.12 l 0,21.12 q 0,1.76 -1.12,2.96 -1.12,1.12 -2.88,1.12 -1.76,0 -2.88,-1.12 -1.12,-1.2 -1.12,-2.96 l 0,-21.2 q 0,-2.8 -0.8,-5.12 -0.72,-2.32 -2.56,-3.68 -1.84,-1.36 -5.12,-1.36 -3.12,0 -5.52,1.36 -2.4,1.36 -3.76,3.68 -1.28,2.32 -1.28,5.12 l 0,21.2 q 0,1.76 -1.2,2.96 -1.12,1.12 -2.8,1.12 -1.76,0 -2.88,-1.12 -1.12,-1.2 -1.12,-2.96 l 0,-33.92 q 0,-1.76 1.12,-2.88 1.12,-1.2 2.88,-1.2 1.68,0 2.8,1.2 1.2,1.12 1.2,2.88 l 0,4.72 -1.52,0.88 q 0.56,-1.76 1.84,-3.6 1.28,-1.84 3.2,-3.36 2,-1.52 4.4,-2.48 2.4,-0.96 5.2,-0.96 z" />
    </g>
  </g>
  <g
     transform="translate(-109.66021,-657.58496)"
     id="layer6">
    <g
       id="text4142-1"
       style="font-style:normal;font-variant:normal;font-weight:normal;font-stretch:normal;font-size:80px;line-height:125%;font-family:Quicksand;-inkscape-font-specification:Quicksand;letter-spacing:0px;word-spacing:0px;display:inline;fill:#5789b7;fill-opacity:1;stroke:none;stroke-width:1px;stroke-linecap:butt;stroke-linejoin:miter;stroke-opacity:1">
      <path
         id="path4390"
         style="font-style:normal;font-variant:normal;font-weight:600;font-stretch:normal;font-family:Quicksand;-inkscape-font-specification:'Quicksand Semi-Bold';fill:#5789b7;fill-opacity:1"
         d="m 356.57945,684.60295 q 5.6,0 9.92,2.8 4.4,2.8 6.96,7.68 2.56,4.8 2.56,11.2 0,6.4 -2.56,11.36 -2.56,4.88 -6.88,7.68 -4.32,2.8 -9.76,2.8 -3.04,0 -5.76,-0.96 -2.72,-0.96 -4.8,-2.48 -2.08,-1.6 -3.44,-3.36 -1.28,-1.76 -1.6,-3.28 l 2.16,-1.04 0,22.32 q 0,1.76 -1.2,2.88 -1.12,1.2 -2.8,1.2 -1.76,0 -2.88,-1.2 -1.12,-1.12 -1.12,-2.88 l 0,-50.08 q 0,-1.68 1.12,-2.88 1.12,-1.2 2.88,-1.2 1.68,0 2.8,1.2 1.2,1.2 1.2,2.88 l 0,5.52 -1.28,-0.72 q 0.24,-1.52 1.52,-3.12 1.28,-1.68 3.2,-3.12 2,-1.44 4.48,-2.32 2.56,-0.88 5.28,-0.88 z m -0.88,7.36 q -3.84,0 -6.72,1.92 -2.8,1.84 -4.4,5.04 -1.6,3.2 -1.6,7.36 0,4.08 1.6,7.44 1.6,3.28 4.4,5.2 2.88,1.84 6.72,1.84 3.76,0 6.56,-1.84 2.8,-1.92 4.4,-5.2 1.68,-3.36 1.68,-7.44 0,-4.08 -1.68,-7.28 -1.6,-3.28 -4.4,-5.12 -2.8,-1.92 -6.56,-1.92 z" />
      <path
         id="path4392"
         style="font-style:normal;font-variant:normal;font-weight:600;font-stretch:normal;font-family:Quicksand;-inkscape-font-specification:'Quicksand Semi-Bold';fill:#5789b7;fill-opacity:1"
         d="m 415.8782,685.00295 q 1.76,0 2.88,1.2 1.12,1.12 1.12,2.88 l 0,34.4 q 0,7.04 -2.72,11.44 -2.64,4.4 -7.2,6.4 -4.48,2.08 -10.16,2.08 -2.88,0 -5.76,-0.56 -2.88,-0.48 -4.72,-1.44 -1.92,-0.88 -2.72,-2.16 -0.8,-1.28 -0.24,-2.8 0.56,-1.92 1.92,-2.64 1.36,-0.64 2.8,-0.08 1.36,0.56 3.6,1.44 2.24,0.88 5.12,0.88 3.92,0 6.64,-1.28 2.72,-1.28 4.08,-4 1.44,-2.72 1.44,-7.04 l 0,-5.52 1.28,1.92 q -1.28,2.64 -3.36,4.4 -2.08,1.76 -4.96,2.72 -2.8,0.96 -6.24,0.96 -4.4,0 -7.6,-1.92 -3.12,-2 -4.8,-5.44 -1.68,-3.52 -1.68,-8 l 0,-23.76 q 0,-1.76 1.12,-2.88 1.12,-1.2 2.88,-1.2 1.68,0 2.8,1.2 1.2,1.12 1.2,2.88 l 0,21.6 q 0,5.28 2.32,7.76 2.32,2.4 6.88,2.4 3.04,0 5.28,-1.28 2.24,-1.28 3.52,-3.52 1.28,-2.32 1.28,-5.36 l 0,-21.6 q 0,-1.76 1.12,-2.88 1.2,-1.2 2.88,-1.2 z" />
    </g>
  </g>
  <g
     transform="translate(-109.66021,-657.58496)"
     style="display:inline;opacity:1"
     id="layer3">
    <path
       d="m 415.70834,684.54725 c 1.17333,0 2.13333,0.4 2.88,1.2 0.74667,0.74667 1.12,1.70667 1.12,2.88 l 0,34.4 c 0,4.69333 -0.90667,8.50667 -2.72,11.44 -1.76,2.93333 -4.16,5.06667 -7.2,6.4 -2.98667,1.38667 -6.35755,2.15892 -10.14422,2.15892 -1.92,0 -4.07675,-0.24981 -5.99675,-0.62314 -1.11831,-0.19268 -2.29814,-0.50189 -3.39789,-0.8942 -0.60588,-0.21613 -3.25162,-1.36642 -3.73647,-1.66504 -2.81368,-1.20731 -3.03047,-1.62143 -5.78457,-1.88973 -1.1618,-0.11318 -1.4965,0.17115 -2.94299,0.52757 -2.25402,0.55023 -2.28265,0.5624 -3.75574,1.2678 -0.70109,0.19326 -0.87385,0.32425 -0.96034,0.84809 -0.35901,0.44184 -0.82878,2.00704 -1.5624,3.39086 -0.22125,0.41736 -2.0049,2.24607 -2.44906,2.4427 -0.44417,0.19663 -1.82336,0.77415 -2.60631,1.1356 -0.61272,0.28286 -0.96693,0.77839 -1.5461,1.28525 -0.92023,0.20091 -1.7252,0.128 -2.71453,-0.20419 -0.91296,-0.30654 -1.81706,-0.35444 -2.52609,-0.24177 -1.68958,0.17903 -3.94604,0.27773 -4.58075,0.14569 -0.5497,-0.22946 -1.02557,-0.2565 -1.49181,-0.53655 -1.52594,-1.88879 -4.84758,1.17282 -6.91896,2.68692 -1.9974,1.46003 -0.72164,-0.14622 -0.48378,-0.45409 0.26102,-0.33785 1.34245,-1.17813 1.34245,-1.17813 0,0 0.77551,-0.42923 0.64519,-0.74881 -0.13032,-0.31958 -1.02053,-0.0557 -1.02053,-0.0557 0,0 -1.38387,0.23897 -1.84956,0.25417 -0.28574,0.009 -2.34466,-0.12558 -0.0507,-0.5823 8.16908,-1.7796 6.75647,-2.04779 6.62236,-2.6097 -0.12068,-0.50565 -0.14144,-0.52961 -0.10284,-0.97154 0.0387,-0.44194 0.1546,-1.00382 0.39285,-1.41252 0.23824,-0.4087 0.4211,-0.75446 0.71636,-1.04444 1.14375,-1.12331 2.84583,-2.20898 3.19335,-2.91341 0.50454,-1.99151 0.25231,-1.96069 1.1496,-2.87956 0.68249,-0.69891 1.43185,-0.52176 2.51977,-0.6346 0.77266,-0.0802 1.38596,-0.81712 2.1133,-1.15802 0.63285,-0.29661 1.50335,-0.52013 1.9508,-0.76858 0.74695,-0.41479 1.87154,-0.21942 2.81106,-0.20815 0.8032,0.01 1.30889,0.0161 2.39825,0.23556 1.25818,0.1069 1.44857,-0.0456 2.07531,-0.37424 1.97319,-0.94201 1.64735,-0.75941 4.01836,-1.51159 2.368,-0.66699 3.90351,-0.71047 5.81204,-0.86473 2.8617,-0.0118 5.30722,0.89094 7.90795,1.63941 1.95294,0.56836 3.79716,1.58675 5.67342,2.2462 1.49333,0.58667 3.2,0.88 5.12,0.88 2.61333,0 4.82667,-0.42667 6.64,-1.28 1.81333,-0.85333 3.17333,-2.18667 4.08,-4 0.96,-1.81333 1.44,-4.16 1.44,-7.04 l 0,-5.52 1.28,1.92 c -0.85333,1.76 -1.97333,3.22667 -3.36,4.4 -1.38667,1.17333 -3.04,2.08 -4.96,2.72 -1.86667,0.64 -3.94667,0.96 -6.24,0.96 -2.93333,0 -5.46667,-0.64 -7.6,-1.92 -2.08,-1.33333 -3.68,-3.14667 -4.8,-5.44 -1.12,-2.34667 -1.68,-5.01333 -1.68,-8 l 0,-23.76 c 0,-1.17333 0.37333,-2.13333 1.12,-2.88 0.74667,-0.8 1.70667,-1.2 2.88,-1.2 1.12,0 2.05333,0.4 2.8,1.2 0.8,0.74667 1.2,1.70667 1.2,2.88 l 0,21.6 c 0,3.52 0.77333,6.10667 2.32,7.76 1.54667,1.6 3.84,2.4 6.88,2.4 2.02667,0 3.78667,-0.42667 5.28,-1.28 1.49333,-0.85333 2.66667,-2.02667 3.52,-3.52 0.85333,-1.54667 1.28,-3.33333 1.28,-5.36 l 0,-21.6 c 0,-1.17333 0.37333,-2.13333 1.12,-2.88 0.8,-0.8 1.76,-1.2 2.88,-1.2 z"
       style="font-style:normal;font-variant:normal;font-weight:600;font-stretch:normal;font-size:medium;line-height:125%;font-family:Quicksand;-inkscape-font-specification:'Quicksand Semi-Bold';letter-spacing:0px;word-spacing:0px;opacity:1;fill:#5789b7;fill-opacity:1;stroke:none;stroke-width:1px;stroke-linecap:butt;stroke-linejoin:miter;stroke-opacity:1"
       id="path4250" />
  </g>
  <g
     transform="translate(-109.66021,-657.58496)"
     style="display:inline"
     id="layer5">
    <rect
       y="657.58496"
       x="425.5451"
       height="83.5"
       width="198.99265"
       id="rect4537"
       style="color:#000000;clip-rule:nonzero;display:inline;overflow:visible;visibility:visible;opacity:1;isolation:auto;mix-blend-mode:normal;color-interpolation:sRGB;color-interpolation-filters:linearRGB;solid-color:#000000;solid-opacity:1;fill:#1e1e1e;fill-opacity:1;fill-rule:nonzero;stroke:none;stroke-width:1;stroke-linecap:butt;stroke-linejoin:miter;stroke-miterlimit:4;stroke-dasharray:none;stroke-dashoffset:0;stroke-opacity:1;color-rendering:auto;image-rendering:auto;shape-rendering:auto;text-rendering:auto;enable-background:accumulate" />
  </g>
  <g
     transform="translate(-109.66021,-657.58496)"
     id="g4515"
     style="display:inline;opacity:1">
    <g
       id="text4306"
       style="color:#000000;font-style:normal;font-variant:normal;font-weight:normal;font-stretch:normal;font-size:80px;line-height:125%;font-family:'VCR OSD Mono';-inkscape-font-specification:'VCR OSD Mono';text-indent:0;text-align:start;text-decoration:none;text-decoration-line:none;text-decoration-style:solid;text-decoration-color:#000000;letter-spacing:0px;word-spacing:0px;text-transform:none;direction:ltr;block-progression:tb;writing-mode:lr-tb;baseline-shift:baseline;text-anchor:start;white-space:normal;clip-rule:nonzero;display:inline;overflow:visible;visibility:visible;opacity:1;isolation:auto;mix-blend-mode:normal;color-interpolation:sRGB;color-interpolation-filters:linearRGB;solid-color:#000000;solid-opacity:1;fill:#ffffff;fill-opacity:1;fill-rule:nonzero;stroke:none;stroke-width:1px;stroke-linecap:butt;stroke-linejoin:miter;stroke-miterlimit:4;stroke-dasharray:none;stroke-dashoffset:0;stroke-opacity:1;color-rendering:auto;image-rendering:auto;shape-rendering:auto;text-rendering:auto;enable-background:accumulate">
      <path
         id="path4395"
         d="m 441.05707,695.42871 0,31.25 -7.8125,0 0,-42.96875 7.8125,0 0,3.90625 3.90625,0 0,-3.90625 19.53125,0 0,3.90625 3.90625,0 0,3.90625 3.90625,0 0,35.15625 -7.8125,0 0,-31.25 -3.90625,0 0,-3.90625 -3.90625,0 0,35.15625 -7.8125,0 0,-35.15625 -3.90625,0 0,3.90625 -3.90625,0 z" />
      <path
         id="path4397"
         d="m 480.11957,683.70996 7.8125,0 0,31.25 3.90625,0 0,3.90625 15.625,0 0,-3.90625 3.90625,0 0,-31.25 7.8125,0 0,35.15625 -3.90625,0 0,3.90625 -3.90625,0 0,3.90625 -23.4375,0 0,-3.90625 -3.90625,0 0,-3.90625 -3.90625,0 0,-35.15625 z" />
      <path
         id="path4399"
         d="m 558.24457,691.52246 0,-19.53125 7.8125,0 0,54.6875 -7.8125,0 0,-7.8125 -3.90625,0 0,3.90625 -3.90625,0 0,3.90625 -11.71875,0 0,-3.90625 -3.90625,0 0,-3.90625 -3.90625,0 0,-3.90625 -3.90625,0 0,-19.53125 3.90625,0 0,-3.90625 3.90625,0 0,-3.90625 3.90625,0 0,-3.90625 11.71875,0 0,3.90625 3.90625,0 0,3.90625 3.90625,0 z m -19.53125,23.4375 3.90625,0 0,3.90625 3.90625,0 0,-3.90625 3.90625,0 0,-3.90625 3.90625,0 0,-11.71875 -3.90625,0 0,-3.90625 -3.90625,0 0,-3.90625 -3.90625,0 0,3.90625 -3.90625,0 0,3.90625 -3.90625,0 0,11.71875 3.90625,0 0,3.90625 z" />
    </g>
  </g>
  <g
     style="display:inline"
     id="layer1">
    <text
       id="text4302"
       y="84.971115"
       x="366.625"
       style="font-style:normal;font-weight:normal;font-size:12.5px;line-height:125%;font-family:sans-serif;letter-spacing:0px;word-spacing:0px;fill:#000000;fill-opacity:1;stroke:none;stroke-width:1px;stroke-linecap:butt;stroke-linejoin:miter;stroke-opacity:1"
       xml:space="preserve"><tspan
         y="84.971115"
         x="366.625"
         id="tspan4304" /></text>
    <g
       id="text4306-2"
       style="color:#000000;font-style:normal;font-variant:normal;font-weight:normal;font-stretch:normal;font-size:80px;line-height:125%;font-family:'VCR OSD Mono';-inkscape-font-specification:'VCR OSD Mono';text-indent:0;text-align:start;text-decoration:none;text-decoration-line:none;text-decoration-style:solid;text-decoration-color:#000000;letter-spacing:0px;word-spacing:0px;text-transform:none;direction:ltr;block-progression:tb;writing-mode:lr-tb;baseline-shift:baseline;text-anchor:start;white-space:normal;clip-rule:nonzero;display:inline;overflow:visible;visibility:visible;opacity:1;isolation:auto;mix-blend-mode:normal;color-interpolation:sRGB;color-interpolation-filters:linearRGB;solid-color:#000000;solid-opacity:1;fill:#ffffff;fill-opacity:1;fill-rule:nonzero;stroke:none;stroke-width:1px;stroke-linecap:butt;stroke-linejoin:miter;stroke-miterlimit:4;stroke-dasharray:none;stroke-dashoffset:0;stroke-opacity:1;color-rendering:auto;image-rendering:auto;shape-rendering:auto;text-rendering:auto;enable-background:accumulate">
      <path
         id="path4402"
         d="m 460.21637,72.953049 0,-7.8125 46.875,0 0,7.8125 -46.875,0 z" />
		<animate attributeName="visibility" values="visible;hidden" dur="1s" repeatCount="indefinite"/>
    </g>
  </g>
</svg>
